<svg width="193" height="70" viewBox="0 0 193 70" fill="none" xmlns="http://www.w3.org/2000/svg">
<path d="M185 0H8C3.58172 0 0 3.58172 0 8V62C0 66.4183 3.58172 70 8 70H185C189.418 70 193 66.4183 193 62V8C193 3.58172 189.418 0 185 0Z" fill="black"/>
<path d="M40.9922 34.331C41.0118 33.0069 41.3677 31.7095 42.0265 30.5608C42.6853 29.412 43.6253 28.4496 44.7582 27.764C44.0312 26.7407 43.0768 25.8998 41.9699 25.3076C40.8631 24.7154 39.634 24.388 38.3792 24.351C35.6962 24.072 33.0942 25.941 31.7262 25.941C30.3322 25.941 28.2262 24.379 25.9592 24.425C24.4974 24.4691 23.0715 24.8894 21.8194 25.6453C20.5673 26.4011 19.5313 27.467 18.8112 28.74C15.7202 34.036 18.0252 41.82 20.9862 46.1C22.4672 48.197 24.1992 50.539 26.4642 50.456C28.6812 50.365 29.5092 49.056 32.1842 49.056C34.8362 49.056 35.6122 50.456 37.9242 50.403C40.3032 50.365 41.8012 48.297 43.2312 46.181C44.2942 44.6897 45.1131 43.0387 45.6572 41.29C42.8322 40.107 40.9952 37.367 40.9922 34.331ZM36.6262 21.535C37.9211 19.9999 38.5607 18.0174 38.4072 16.015C36.4307 16.2184 34.6019 17.1545 33.2812 18.639C32.6395 19.36 32.1475 20.2013 31.8337 21.1141C31.5199 22.0268 31.3906 22.9929 31.4532 23.956C32.4419 23.9674 33.4205 23.7557 34.3161 23.3367C35.2117 22.9177 36.0013 22.3022 36.6262 21.536V21.535ZM69.0142 45.15H61.4492L59.6322 50.458H56.4282L63.5932 30.816H66.9232L74.0882 50.458H70.8282L69.0142 45.149V45.15ZM62.2322 42.7H68.2292L65.2732 34.083H65.1902L62.2322 42.7ZM89.5622 43.299C89.5622 47.749 87.1562 50.608 83.5242 50.608C82.6071 50.6575 81.6944 50.449 80.8897 50.0063C80.085 49.5635 79.4204 48.9042 78.9712 48.103H78.9022V55.196H75.9322V36.138H78.8072V38.52H78.8622C79.3316 37.7228 80.0072 37.0668 80.8179 36.6212C81.6287 36.1756 82.5446 35.9569 83.4692 35.988C87.1422 35.988 89.5622 38.861 89.5622 43.298V43.299ZM86.5102 43.299C86.5102 40.399 84.9962 38.493 82.6862 38.493C80.4162 38.493 78.8902 40.44 78.8902 43.299C78.8902 46.184 80.4162 48.116 82.6862 48.116C84.9962 48.116 86.5102 46.224 86.5102 43.299ZM105.488 43.299C105.488 47.749 103.082 50.608 99.4502 50.608C98.5331 50.6575 97.6204 50.449 96.8157 50.0063C96.011 49.5635 95.3464 48.9042 94.8972 48.103H94.8282V55.196H91.8582V36.138H94.7332V38.52H94.7882C95.2576 37.7228 95.9332 37.0668 96.7439 36.6212C97.5547 36.1756 98.4706 35.9569 99.3952 35.988C103.068 35.988 105.488 38.861 105.488 43.298V43.299ZM102.435 43.299C102.435 40.399 100.921 38.493 98.6122 38.493C96.3422 38.493 94.8162 40.44 94.8162 43.299C94.8162 46.184 96.3422 48.116 98.6122 48.116C100.922 48.116 102.435 46.224 102.435 43.299ZM116.014 44.985C116.234 46.933 118.146 48.212 120.759 48.212C123.262 48.212 125.063 46.933 125.063 45.177C125.063 43.652 123.977 42.739 121.405 42.114L118.833 41.501C115.188 40.629 113.496 38.943 113.496 36.206C113.496 32.816 116.481 30.489 120.718 30.489C124.912 30.489 127.787 32.817 127.883 36.206H124.885C124.705 34.246 123.068 33.062 120.675 33.062C118.283 33.062 116.645 34.259 116.645 36.002C116.645 37.39 117.692 38.207 120.25 38.832L122.436 39.364C126.508 40.317 128.2 41.936 128.2 44.809C128.2 48.484 125.242 50.786 120.538 50.786C116.138 50.786 113.165 48.538 112.973 44.986H116.013L116.014 44.985ZM134.61 32.75V36.139H137.362V38.466H134.61V46.361C134.61 47.588 135.161 48.159 136.37 48.159C136.697 48.154 137.023 48.131 137.348 48.091V50.405C136.804 50.5056 136.251 50.5512 135.698 50.541C132.768 50.541 131.626 49.452 131.626 46.675V38.466H129.522V36.139H131.626V32.749H134.61V32.75ZM138.955 43.3C138.955 38.794 141.637 35.963 145.818 35.963C150.013 35.963 152.682 38.793 152.682 43.3C152.682 47.818 150.027 50.637 145.818 50.637C141.61 50.637 138.955 47.817 138.955 43.3ZM149.655 43.3C149.655 40.209 148.225 38.385 145.818 38.385C143.411 38.385 141.982 40.223 141.982 43.3C141.982 46.403 143.412 48.213 145.818 48.213C148.225 48.213 149.656 46.403 149.656 43.3H149.655ZM155.131 36.139H157.963V38.576H158.033C158.229 37.8115 158.682 37.1374 159.315 36.6665C159.949 36.1957 160.725 35.9565 161.513 35.989C161.855 35.988 162.196 36.024 162.53 36.099V38.848C162.098 38.7172 161.648 38.6571 161.196 38.67C160.766 38.6524 160.336 38.7275 159.937 38.8902C159.538 39.0529 159.179 39.2994 158.883 39.613C158.59 39.9246 158.368 40.2965 158.233 40.7027C158.097 41.1089 158.053 41.5397 158.101 41.965V50.459H155.131V36.139ZM176.224 46.253C175.824 48.853 173.267 50.637 169.994 50.637C165.784 50.637 163.172 47.846 163.172 43.367C163.172 38.876 165.798 35.963 169.869 35.963C173.872 35.963 176.389 38.684 176.389 43.026V44.033H166.169V44.211C166.122 44.739 166.189 45.271 166.366 45.7709C166.542 46.2708 166.824 46.7271 167.191 47.109C167.561 47.4933 168.008 47.795 168.503 47.9946C168.998 48.1942 169.529 48.287 170.062 48.267C170.762 48.3339 171.464 48.1743 172.066 47.8116C172.667 47.449 173.137 46.9026 173.404 46.253H176.224ZM166.184 41.979H173.418C173.445 41.5043 173.372 41.0292 173.204 40.5842C173.037 40.1391 172.779 39.7338 172.446 39.394C172.111 39.052 171.71 38.7823 171.267 38.6017C170.823 38.4211 170.348 38.3334 169.869 38.344C168.894 38.3375 167.956 38.718 167.261 39.402C166.919 39.7384 166.648 40.1396 166.463 40.582C166.278 41.0245 166.183 41.4994 166.184 41.979Z" fill="white"/>
<path d="M58.0278 20.753C58.0278 17.693 59.6728 15.802 62.3228 15.802C64.3028 15.705 66.0278 17.127 66.2888 19.072H64.8138C64.6867 18.5136 64.3678 18.0174 63.9127 17.6697C63.4576 17.3221 62.895 17.1449 62.3228 17.169C60.6108 17.169 59.5398 18.549 59.5398 20.753C59.5398 22.951 60.6098 24.331 62.3288 24.331C62.8805 24.3738 63.4299 24.2237 63.8831 23.9063C64.3364 23.5889 64.6653 23.124 64.8138 22.591H66.2888C65.9898 24.491 64.2658 25.844 62.3288 25.698C59.6788 25.698 58.0278 23.808 58.0278 20.753ZM67.9078 21.905C67.8482 21.2772 67.9664 20.6453 68.2488 20.0814C68.5312 19.5175 68.9664 19.0444 69.5048 18.716C70.0458 18.3845 70.6679 18.209 71.3023 18.209C71.9368 18.209 72.5589 18.3845 73.0998 18.716C73.6381 19.0445 74.0731 19.5177 74.3553 20.0815C74.6375 20.6454 74.7555 21.2773 74.6958 21.905C74.7564 22.5332 74.639 23.1657 74.3571 23.7303C74.0753 24.2949 73.6403 24.7689 73.1018 25.098C72.5603 25.4305 71.9373 25.6065 71.3018 25.6065C70.6664 25.6065 70.0433 25.4305 69.5018 25.098C68.9636 24.7687 68.5288 24.2947 68.2471 23.7301C67.9654 23.1655 67.8482 22.5331 67.9088 21.905H67.9078ZM73.2348 21.905C73.2348 20.361 72.5348 19.458 71.3048 19.458C70.0698 19.458 69.3748 20.361 69.3748 21.905C69.3748 23.461 70.0698 24.357 71.3048 24.357C72.5348 24.357 73.2348 23.455 73.2348 21.905ZM76.6018 18.347H77.9688V19.478H78.0748C78.2573 19.07 78.562 18.7288 78.9468 18.5014C79.3315 18.2741 79.7774 18.1719 80.2228 18.209C80.5723 18.1827 80.9233 18.2348 81.2501 18.3614C81.5769 18.488 81.8713 18.6861 82.1118 18.941C82.5958 19.456 82.8178 20.161 82.7138 20.858V25.469H81.2938V21.211C81.2938 20.067 80.7908 19.497 79.7408 19.497C79.5034 19.4858 79.2664 19.5257 79.0457 19.6141C78.8251 19.7024 78.6259 19.8371 78.4618 20.009C78.1318 20.356 77.9718 20.829 78.0218 21.302V25.469H76.6018V18.347ZM87.5418 18.209C89.1598 18.209 90.2178 18.954 90.3568 20.21H88.9938C88.8638 19.687 88.3468 19.354 87.5408 19.354C86.7478 19.354 86.1458 19.726 86.1458 20.282C86.1458 20.708 86.5098 20.976 87.2898 21.152L88.4858 21.427C89.8538 21.741 90.4958 22.323 90.4958 23.37C90.4958 24.71 89.2328 25.607 87.5148 25.607C85.8028 25.607 84.6868 24.841 84.5598 23.579H85.9818C86.2338 24.197 86.8808 24.565 87.5478 24.469C88.4328 24.469 89.0608 24.076 89.0608 23.507C89.0608 23.082 88.7238 22.807 88.0028 22.637L86.7478 22.349C85.3798 22.029 84.7458 21.42 84.7458 20.361C84.7458 19.098 85.9148 18.209 87.5408 18.209H87.5418ZM92.2888 17.156L93.9488 14.906H95.6128L93.7558 17.156H92.2898H92.2888ZM92.4358 18.346H93.8498V25.469H92.4358V18.347V18.346ZM96.0608 26.182H97.5138C97.6338 26.699 98.2348 27.032 99.1938 27.032C100.377 27.032 101.078 26.476 101.078 25.535V24.168H100.971C100.746 24.5517 100.42 24.8662 100.028 25.0771C99.6369 25.288 99.1949 25.3873 98.7508 25.364C96.9138 25.364 95.7768 23.958 95.7768 21.826C95.7768 19.654 96.9258 18.228 98.7648 18.228C99.2202 18.2115 99.6715 18.3198 100.07 18.5412C100.468 18.7625 100.798 19.0886 101.025 19.484H101.137V18.347H102.497V25.527C102.497 27.157 101.209 28.19 99.1728 28.19C97.3758 28.19 96.2128 27.392 96.0608 26.182ZM101.104 21.819C101.104 20.4 100.363 19.491 99.1538 19.491C97.9308 19.491 97.2438 20.401 97.2438 21.819C97.2438 23.239 97.9308 24.148 99.1538 24.148C100.371 24.148 101.104 23.246 101.104 21.819ZM110.828 25.469H109.46V24.338H109.347C109.162 24.7501 108.854 25.0941 108.464 25.3217C108.074 25.5493 107.622 25.6491 107.173 25.607C106.825 25.6316 106.477 25.5787 106.152 25.4521C105.828 25.3255 105.536 25.1284 105.297 24.875C105.06 24.6235 104.882 24.3216 104.778 23.9919C104.673 23.6623 104.645 23.3133 104.694 22.971V18.347H106.116V22.604C106.116 23.755 106.585 24.305 107.629 24.305C108.119 24.351 108.604 24.175 108.949 23.828C109.294 23.48 109.462 22.997 109.406 22.513V18.347H110.828V25.469ZM119.177 23.546C118.98 24.1998 118.56 24.7639 117.99 25.1402C117.42 25.5166 116.737 25.6814 116.058 25.606C115.585 25.6189 115.114 25.5294 114.679 25.3437C114.244 25.158 113.854 24.8804 113.536 24.53C113.22 24.1817 112.985 23.7683 112.846 23.3191C112.707 22.8698 112.669 22.3957 112.734 21.93C112.671 21.4629 112.71 20.9877 112.848 20.5372C112.986 20.0866 113.221 19.6714 113.535 19.32C113.851 18.9666 114.24 18.6848 114.674 18.4934C115.108 18.302 115.577 18.2054 116.052 18.21C118.055 18.21 119.262 19.563 119.262 21.8V22.29H114.181V22.369C114.159 22.6308 114.192 22.8944 114.278 23.1425C114.365 23.3906 114.503 23.6177 114.683 23.809C115.048 24.197 115.561 24.415 116.097 24.409C116.436 24.4502 116.779 24.3902 117.084 24.2366C117.389 24.0831 117.641 23.8428 117.81 23.546H119.177ZM114.181 21.251H117.816C117.834 21.0115 117.801 20.771 117.719 20.5451C117.638 20.3192 117.509 20.113 117.343 19.94C117.175 19.7657 116.973 19.6281 116.75 19.536C116.526 19.4439 116.286 19.3993 116.044 19.405C115.799 19.4017 115.555 19.4473 115.328 19.539C115.1 19.6306 114.893 19.7666 114.719 19.939C114.369 20.287 114.174 20.759 114.181 21.251ZM121.235 15.566H122.656V25.469H121.235V15.566ZM124.63 21.905C124.57 21.2773 124.688 20.6454 124.97 20.0815C125.253 19.5177 125.688 19.0445 126.226 18.716C126.767 18.3845 127.389 18.209 128.023 18.209C128.658 18.209 129.28 18.3845 129.821 18.716C130.359 19.0444 130.795 19.5175 131.077 20.0814C131.359 20.6453 131.477 21.2772 131.418 21.905C131.478 22.5333 131.361 23.1659 131.079 23.7305C130.797 24.2951 130.361 24.769 129.823 25.098C129.281 25.4303 128.659 25.6062 128.023 25.6062C127.388 25.6062 126.765 25.4303 126.224 25.098C125.685 24.7689 125.25 24.2949 124.969 23.7303C124.687 23.1657 124.569 22.5332 124.63 21.905ZM129.957 21.905C129.957 20.361 129.256 19.458 128.027 19.458C126.792 19.458 126.097 20.361 126.097 21.905C126.097 23.461 126.792 24.357 128.027 24.357C129.256 24.357 129.957 23.455 129.957 21.905ZM143.314 23.545C143.117 24.1992 142.697 24.7637 142.127 25.1404C141.558 25.5172 140.874 25.6823 140.195 25.607C139.722 25.6198 139.251 25.5302 138.816 25.3443C138.381 25.1584 137.991 24.8806 137.673 24.53C137.357 24.1817 137.122 23.7683 136.983 23.3191C136.844 22.8698 136.806 22.3957 136.871 21.93C136.808 21.4629 136.847 20.9877 136.985 20.5372C137.123 20.0866 137.358 19.6714 137.672 19.32C137.988 18.9666 138.377 18.6848 138.811 18.4934C139.245 18.302 139.714 18.2054 140.189 18.21C142.191 18.21 143.399 19.563 143.399 21.8V22.29H138.318V22.369C138.296 22.6308 138.329 22.8944 138.415 23.1425C138.502 23.3906 138.64 23.6177 138.82 23.809C139.185 24.197 139.698 24.415 140.234 24.409C140.572 24.45 140.916 24.3899 141.22 24.2363C141.525 24.0828 141.777 23.8426 141.946 23.546H143.314V23.545ZM138.318 21.251H141.953C141.971 21.0115 141.938 20.771 141.856 20.5451C141.775 20.3192 141.646 20.113 141.48 19.94C141.312 19.7657 141.11 19.6281 140.887 19.536C140.663 19.4439 140.423 19.3993 140.181 19.405C139.936 19.4017 139.692 19.4473 139.465 19.539C139.237 19.6306 139.03 19.7666 138.856 19.939C138.506 20.287 138.311 20.759 138.318 21.251ZM145.307 18.347H146.674V19.478H146.78C146.962 19.07 147.267 18.7288 147.652 18.5014C148.037 18.2741 148.482 18.1719 148.928 18.209C149.277 18.1827 149.628 18.2348 149.955 18.3614C150.282 18.488 150.576 18.6861 150.817 18.941C151.301 19.456 151.523 20.161 151.419 20.858V25.469H149.999V21.211C149.999 20.067 149.496 19.497 148.445 19.497C148.208 19.486 147.971 19.5259 147.75 19.6143C147.53 19.7026 147.331 19.8372 147.167 20.009C146.837 20.356 146.676 20.829 146.727 21.302V25.469H145.307V18.347ZM163.605 23.546C163.408 24.1998 162.988 24.7639 162.418 25.1402C161.848 25.5166 161.165 25.6814 160.486 25.606C160.013 25.6189 159.542 25.5294 159.107 25.3437C158.672 25.158 158.282 24.8804 157.964 24.53C157.648 24.1817 157.413 23.7683 157.274 23.3191C157.135 22.8698 157.097 22.3957 157.162 21.93C157.099 21.4629 157.138 20.9877 157.276 20.5372C157.414 20.0866 157.649 19.6714 157.963 19.32C158.279 18.9666 158.668 18.6848 159.102 18.4934C159.536 18.302 160.005 18.2054 160.48 18.21C162.483 18.21 163.69 19.563 163.69 21.8V22.29H158.609V22.369C158.587 22.6308 158.62 22.8944 158.706 23.1425C158.793 23.3906 158.931 23.6177 159.111 23.809C159.476 24.197 159.99 24.415 160.525 24.409C160.864 24.4502 161.207 24.3902 161.512 24.2366C161.817 24.0831 162.069 23.8428 162.238 23.546H163.605ZM158.609 21.251H162.244C162.262 21.0115 162.229 20.771 162.147 20.5451C162.066 20.3192 161.937 20.113 161.771 19.94C161.603 19.7657 161.401 19.6281 161.178 19.536C160.954 19.4439 160.714 19.3993 160.472 19.405C160.227 19.4019 159.984 19.4475 159.756 19.5391C159.529 19.6308 159.322 19.7667 159.148 19.939C158.797 20.287 158.602 20.759 158.608 21.251H158.609ZM165.663 15.566H167.084V25.469H165.663V15.566Z" fill="white"/>
</svg>
