<svg width="194" height="70" viewBox="0 0 194 70" fill="none" xmlns="http://www.w3.org/2000/svg">
<path d="M182.754 0H11.2464C5.03517 0 0 5.01441 0 11.2V58.8C0 64.9856 5.03517 70 11.2464 70H182.754C188.965 70 194 64.9856 194 58.8V11.2C194 5.01441 188.965 0 182.754 0Z" fill="black"/>
<path d="M57.5156 24.876V16.231H60.1186C61.4196 16.231 62.5766 16.663 63.2996 17.384C64.1676 18.248 64.4566 19.257 64.4566 20.554C64.4566 21.85 64.0236 22.859 63.2996 23.724C62.5766 24.444 61.4196 24.876 60.1186 24.876H57.5156ZM58.6726 23.868H60.2626C61.2756 23.868 61.9986 23.579 62.5766 23.003C63.1556 22.427 63.4446 21.563 63.4446 20.553C63.4446 19.545 63.1546 18.68 62.5766 18.104C61.9986 17.528 61.1306 17.24 60.2636 17.24H58.6726V23.868ZM66.0476 24.876V16.231H67.2046V24.876H66.0476ZM71.6876 25.02C71.1096 25.02 70.3866 24.876 69.8076 24.444C69.2296 24.012 68.7956 23.435 68.6506 22.715L69.6626 22.283C69.8076 22.715 70.0966 23.147 70.3866 23.435C70.8196 23.724 71.2536 23.868 71.6876 23.868C72.1216 23.868 72.5556 23.724 72.9896 23.435C73.2786 23.147 73.5676 22.859 73.5676 22.427C73.5676 21.994 73.4226 21.562 72.9896 21.274C72.6996 20.986 72.1216 20.698 71.3986 20.554C70.6756 20.265 70.0966 19.977 69.6626 19.689C69.2296 19.257 69.0846 18.825 69.0846 18.249C69.0846 17.672 69.3746 17.095 69.8076 16.663C70.2416 16.231 70.9646 15.943 71.6876 15.943C72.4106 15.943 72.9896 16.087 73.4226 16.519C73.8566 16.951 74.1466 17.239 74.2906 17.672L73.2786 18.104C73.1336 17.816 72.9886 17.528 72.6996 17.384C72.4106 17.095 71.9766 17.095 71.5426 17.095C71.1096 17.095 70.8196 17.24 70.3866 17.384C70.2416 17.672 70.0966 17.96 70.0966 18.392C70.0966 18.68 70.2416 18.969 70.5306 19.257C70.8206 19.545 71.2536 19.689 71.8326 19.833C72.2666 19.977 72.5556 20.121 72.8446 20.265C73.1346 20.41 73.4226 20.554 73.7126 20.842C74.0016 20.986 74.2906 21.274 74.4356 21.706C74.5796 21.994 74.7246 22.426 74.7246 22.859C74.7246 23.291 74.5796 23.724 74.4346 24.012C74.2713 24.3187 74.0198 24.5695 73.7126 24.732C73.2786 24.732 72.9896 24.876 72.6996 24.876C72.4106 25.02 71.9766 25.02 71.6876 25.02ZM77.3276 24.876H76.1706V16.231H79.0626C79.7866 16.231 80.3646 16.519 80.9426 16.951C81.5216 17.384 81.8106 18.104 81.8106 18.825C81.8106 19.545 81.5206 20.121 80.9426 20.698C80.3646 21.13 79.7866 21.418 79.0626 21.418H77.3276V24.876ZM77.3276 20.266H79.2076C79.6416 20.266 80.0756 20.121 80.3646 19.833C80.6546 19.545 80.7986 19.113 80.7986 18.825C80.7986 18.392 80.6536 18.104 80.3646 17.815C80.0746 17.528 79.6416 17.384 79.2076 17.384H77.3276V20.265V20.266ZM90.3426 23.724C89.4756 24.588 88.4626 25.02 87.1616 25.02C85.8596 25.02 84.8476 24.588 83.9796 23.724C83.1126 22.859 82.6786 21.85 82.6786 20.554C82.6786 19.257 83.1126 18.248 83.9796 17.384C84.8476 16.519 85.8596 16.087 87.1616 16.087C88.4626 16.087 89.4756 16.519 90.3426 17.384C91.2106 18.248 91.6446 19.257 91.6446 20.554C91.6446 21.85 91.2106 22.859 90.3426 23.724ZM84.8476 23.004C85.4256 23.579 86.2936 24.012 87.1616 24.012C88.0296 24.012 88.8966 23.724 89.4756 23.003C90.1239 22.3524 90.4878 21.4714 90.4876 20.553C90.4876 19.545 90.1976 18.68 89.4756 18.104C88.8966 17.528 88.0296 17.095 87.1616 17.095C86.2936 17.095 85.4256 17.384 84.8476 18.104C84.1994 18.7546 83.8354 19.6356 83.8356 20.554C83.8356 21.562 84.1246 22.427 84.8476 23.004ZM93.2356 24.876V16.231H94.5366L98.7306 23.003V16.231H99.8876V24.876H98.7306L94.2476 17.816V24.876H93.2356ZM101.913 24.876V16.231H103.069V24.876H101.913ZM104.95 24.876V16.231H108.131C108.453 16.2282 108.773 16.2905 109.071 16.4142C109.37 16.5379 109.64 16.7205 109.866 16.951C110.3 17.384 110.589 17.96 110.589 18.681C110.589 19.113 110.445 19.401 110.3 19.833C110.117 20.1779 109.805 20.4367 109.433 20.553C109.866 20.698 110.156 20.986 110.445 21.274C110.735 21.562 110.879 21.994 110.879 22.571C110.879 23.291 110.589 23.868 110.156 24.3C109.577 24.732 108.999 25.02 108.276 25.02H104.949V24.876H104.95ZM106.106 19.977H108.131C108.565 19.977 108.854 19.833 109.143 19.545C109.433 19.257 109.577 18.969 109.577 18.68C109.577 18.392 109.287 17.96 109.143 17.672C108.854 17.384 108.565 17.24 108.131 17.24H106.106V19.977ZM106.106 23.867H108.42C108.854 23.867 109.143 23.724 109.433 23.435C109.722 23.147 109.866 22.859 109.866 22.427C109.866 22.139 109.722 21.707 109.433 21.418C109.143 21.13 108.854 20.986 108.42 20.986H106.251V23.868H106.106V23.867ZM112.325 24.876V16.231H113.482V23.868H117.242V24.876H112.325ZM123.749 17.24H119.845V19.977H123.46V20.986H119.845V23.724H123.749V24.876H118.688V16.231H123.749V17.24ZM133.439 17.24H129.534V19.977H133.149V20.986H129.534V23.724H133.439V24.876H128.377V16.231H133.439V17.24ZM135.174 24.876V16.231H136.475L140.669 23.003V16.231H141.826V24.876H140.669L136.186 17.816V24.876H135.174Z" fill="white" stroke="white" stroke-width="0.7"/>
<path d="M152.048 49.095H154.738V31.088H152.048V49.095ZM176.294 37.575L173.208 45.382H173.116L169.913 37.574H167.013L171.818 48.486L169.078 54.556H171.885L179.287 37.574H176.294V37.575ZM161.027 47.05C160.147 47.05 158.917 46.609 158.917 45.52C158.917 44.131 160.449 43.597 161.771 43.597C162.953 43.597 163.511 43.853 164.23 44.199C164.13 44.9809 163.751 45.7002 163.162 46.2241C162.573 46.748 161.815 47.0411 161.027 47.049V47.05ZM161.353 37.18C159.404 37.18 157.386 38.038 156.551 39.937L158.94 40.933C159.45 39.937 160.401 39.613 161.4 39.613C162.791 39.613 164.207 40.447 164.23 41.929V42.115C163.742 41.837 162.698 41.42 161.422 41.42C158.846 41.42 156.225 42.833 156.225 45.474C156.225 47.884 158.337 49.437 160.702 49.437C162.512 49.437 163.512 48.626 164.136 47.675H164.23V49.065H166.83V42.16C166.83 38.963 164.437 37.179 161.353 37.179V37.18ZM144.717 39.767H140.888V33.594H144.718C146.73 33.594 147.872 35.256 147.872 36.68C147.872 38.075 146.73 39.767 144.717 39.767ZM144.647 31.087H138.198V49.095H140.888V42.273H144.648C147.631 42.273 150.564 40.115 150.564 36.68C150.564 33.244 147.631 31.086 144.648 31.086L144.647 31.087ZM109.476 47.053C107.616 47.053 106.06 45.498 106.06 43.363C106.06 41.204 107.616 39.627 109.476 39.627C111.311 39.627 112.752 41.204 112.752 43.363C112.752 45.498 111.311 47.053 109.476 47.053ZM112.566 38.583H112.474C111.869 37.863 110.706 37.213 109.244 37.213C106.175 37.213 103.362 39.905 103.362 43.363C103.362 46.798 106.175 49.467 109.244 49.467C110.706 49.467 111.869 48.817 112.474 48.074H112.566V48.955C112.566 51.301 111.311 52.552 109.29 52.552C107.64 52.552 106.617 51.37 106.198 50.372L103.851 51.347C104.525 52.97 106.314 54.967 109.29 54.967C112.45 54.967 115.124 53.11 115.124 48.584V37.584H112.566V38.583ZM116.983 49.095H119.678V31.088H116.983V49.095ZM123.653 43.155C123.583 40.786 125.489 39.581 126.859 39.581C127.929 39.581 128.836 40.115 129.139 40.881L123.652 43.155H123.653ZM132.019 41.112C131.507 39.744 129.951 37.212 126.767 37.212C123.607 37.212 120.979 39.696 120.979 43.34C120.979 46.775 123.583 49.467 127.069 49.467C129.88 49.467 131.507 47.75 132.182 46.751L130.091 45.359C129.392 46.379 128.441 47.053 127.068 47.053C125.698 47.053 124.721 46.426 124.095 45.196L132.298 41.808L132.019 41.112ZM66.6588 39.094V41.693H72.8858C72.7008 43.155 72.2118 44.222 71.4688 44.963C70.5618 45.87 69.1438 46.868 66.6588 46.868C62.8218 46.868 59.8248 43.781 59.8248 39.952C59.8248 36.124 62.8218 33.035 66.6578 33.035C68.7268 33.035 70.2378 33.848 71.3518 34.893L73.1888 33.06C71.6308 31.575 69.5638 30.437 66.6588 30.437C61.4038 30.437 56.9888 34.707 56.9888 39.952C56.9888 45.196 61.4038 49.467 66.6588 49.467C69.4928 49.467 71.6308 48.537 73.3038 46.797C75.0238 45.081 75.5588 42.667 75.5588 40.717C75.5588 40.115 75.5128 39.557 75.4188 39.094H66.6588ZM82.6388 47.053C80.7808 47.053 79.1768 45.521 79.1768 43.34C79.1768 41.135 80.7808 39.627 82.6388 39.627C84.4988 39.627 86.1028 41.135 86.1028 43.34C86.1028 45.521 84.4988 47.053 82.6388 47.053ZM82.6388 37.213C79.2458 37.213 76.4808 39.79 76.4808 43.34C76.4808 46.868 79.2458 49.467 82.6388 49.467C86.0338 49.467 88.7988 46.868 88.7988 43.34C88.7988 39.79 86.0338 37.213 82.6388 37.213ZM96.0758 47.053C94.2158 47.053 92.6118 45.521 92.6118 43.34C92.6118 41.135 94.2158 39.627 96.0758 39.627C97.9358 39.627 99.5378 41.135 99.5378 43.34C99.5378 45.521 97.9348 47.053 96.0758 47.053ZM96.0758 37.213C92.6828 37.213 89.9168 39.79 89.9168 43.34C89.9168 46.868 92.6828 49.467 96.0758 49.467C99.4688 49.467 102.234 46.868 102.234 43.34C102.234 39.79 99.4688 37.213 96.0758 37.213Z" fill="white"/>
<path d="M37.7958 29.474L16.4438 17.291C15.5348 16.774 14.4998 16.974 13.8208 17.592L31.7198 35.529L37.7958 29.474Z" fill="url(#paint0_linear)"/>
<path d="M13.8209 17.593C13.3799 17.993 13.0859 18.567 13.0859 19.247V51.937C13.0859 52.556 13.3309 53.086 13.7059 53.48L31.7199 35.528L13.8209 17.593Z" fill="url(#paint1_linear)"/>
<path d="M13.7061 53.48C14.3791 54.186 15.4861 54.442 16.4471 53.892L37.8291 41.649L31.7201 35.528L13.7061 53.48Z" fill="url(#paint2_linear)"/>
<path d="M45.0417 33.607L37.7947 29.474L31.7207 35.527L37.8277 41.649L45.0447 37.517C46.5547 36.652 46.5517 34.47 45.0417 33.607Z" fill="url(#paint3_linear)"/>
<defs>
<linearGradient id="paint0_linear" x1="27.8821" y1="26.2622" x2="19.0189" y2="17.2775" gradientUnits="userSpaceOnUse">
<stop stop-color="#00F076"/>
<stop offset="1" stop-color="#0BE070"/>
</linearGradient>
<linearGradient id="paint1_linear" x1="17.7718" y1="32.1578" x2="23.3865" y2="30.5202" gradientUnits="userSpaceOnUse">
<stop stop-color="#00E2FF"/>
<stop offset="1" stop-color="#01C4F7"/>
</linearGradient>
<linearGradient id="paint2_linear" x1="17.3735" y1="50.4228" x2="24.537" y2="44.9909" gradientUnits="userSpaceOnUse">
<stop stop-color="#EB214E"/>
<stop offset="1" stop-color="#FF3A44"/>
</linearGradient>
<linearGradient id="paint3_linear" x1="38.9482" y1="35.5615" x2="31.7207" y2="35.5615" gradientUnits="userSpaceOnUse">
<stop stop-color="#FFD902"/>
<stop offset="1" stop-color="#FFBD00"/>
</linearGradient>
</defs>
</svg>
